<svg width="223" height="212" viewBox="0 0 223 212" fill="none" xmlns="http://www.w3.org/2000/svg">
<path d="M43.9492 65.7147C46.7702 31.0331 75.8099 3.65283 111.321 3.65283C148.658 3.65283 178.859 33.8541 178.859 71.1908C178.859 94.9203 166.746 115.663 148.326 127.777" stroke="black" stroke-width="5.5" stroke-linecap="round" stroke-linejoin="round"/>
<path d="M101.199 200.957C70.1682 216.887 31.5039 206.433 12.9186 176.232C-6.82842 144.371 3.12804 102.72 34.9887 83.1391C55.7313 70.3616 80.6225 70.1956 100.867 80.318" stroke="black" stroke-width="5.5" stroke-linecap="round" stroke-linejoin="round"/>
<path d="M120.449 95.2529C123.27 98.2399 125.759 101.559 127.917 105.209C144.013 131.428 140.196 164.118 120.615 185.857" stroke="black" stroke-width="5.5" stroke-linecap="round" stroke-linejoin="round"/>
<path d="M189.646 83.9678C218.52 103.051 228.642 141.383 212.048 172.414C194.293 205.271 153.305 217.716 120.449 199.961C99.5404 188.677 86.9289 167.934 85.1035 145.864" stroke="black" stroke-width="5.5" stroke-linecap="round" stroke-linejoin="round"/>
<path d="M87.4258 121.471C88.7533 116.991 90.5787 112.676 92.7359 108.528C107.339 81.3133 138.038 68.204 166.746 74.5097" stroke="black" stroke-width="5.5" stroke-linecap="round" stroke-linejoin="round"/>
<path d="M125.759 137.402C121.113 138.397 116.301 138.895 111.488 138.895C80.7893 138.895 54.9025 118.484 46.6055 90.2744" stroke="black" stroke-width="5.5" stroke-linecap="round" stroke-linejoin="round"/>
</svg>
