<svg width="1360" height="800" viewBox="0 0 1360 800" fill="none" xmlns="http://www.w3.org/2000/svg">
<rect width="1280" height="720" transform="translate(40 40)" fill="#4D49FC"/>
<rect width="1280" height="720" transform="translate(40 40)" fill="#4D49FC"/>
<path d="M173.753 318V265.636H206.224V272.438H181.653V288.392H203.898V295.168H181.653V318H173.753ZM215.327 318V278.727H222.972V318H215.327ZM219.188 272.668C217.858 272.668 216.716 272.224 215.761 271.338C214.824 270.435 214.355 269.361 214.355 268.116C214.355 266.855 214.824 265.781 215.761 264.895C216.716 263.991 217.858 263.54 219.188 263.54C220.517 263.54 221.651 263.991 222.588 264.895C223.543 265.781 224.02 266.855 224.02 268.116C224.02 269.361 223.543 270.435 222.588 271.338C221.651 272.224 220.517 272.668 219.188 272.668ZM249.722 333.545C246.603 333.545 243.918 333.136 241.668 332.318C239.435 331.5 237.612 330.418 236.197 329.071C234.782 327.724 233.725 326.25 233.026 324.648L239.597 321.938C240.058 322.688 240.671 323.48 241.438 324.315C242.222 325.168 243.279 325.892 244.609 326.489C245.955 327.085 247.685 327.384 249.799 327.384C252.697 327.384 255.092 326.676 256.984 325.261C258.876 323.864 259.822 321.631 259.822 318.562V310.841H259.336C258.876 311.676 258.211 312.605 257.342 313.628C256.489 314.651 255.313 315.537 253.813 316.287C252.313 317.037 250.362 317.412 247.958 317.412C244.856 317.412 242.06 316.687 239.572 315.239C237.1 313.773 235.14 311.616 233.691 308.77C232.259 305.906 231.543 302.386 231.543 298.21C231.543 294.034 232.251 290.455 233.665 287.472C235.097 284.489 237.058 282.205 239.546 280.619C242.035 279.017 244.856 278.216 248.009 278.216C250.447 278.216 252.415 278.625 253.915 279.443C255.415 280.244 256.583 281.182 257.418 282.256C258.271 283.33 258.927 284.276 259.387 285.094H259.95V278.727H267.441V318.869C267.441 322.244 266.657 325.014 265.089 327.179C263.521 329.344 261.398 330.946 258.722 331.986C256.063 333.026 253.063 333.545 249.722 333.545ZM249.646 311.071C251.844 311.071 253.702 310.56 255.219 309.537C256.754 308.497 257.913 307.014 258.697 305.088C259.498 303.145 259.898 300.818 259.898 298.108C259.898 295.466 259.506 293.139 258.722 291.128C257.938 289.116 256.788 287.548 255.271 286.423C253.754 285.281 251.879 284.71 249.646 284.71C247.344 284.71 245.427 285.307 243.893 286.5C242.359 287.676 241.2 289.278 240.415 291.307C239.648 293.335 239.265 295.602 239.265 298.108C239.265 300.682 239.657 302.94 240.441 304.884C241.225 306.827 242.384 308.344 243.918 309.435C245.469 310.526 247.379 311.071 249.646 311.071ZM277.694 318V278.727H285.032V285.119H285.518C286.336 282.955 287.674 281.267 289.532 280.057C291.39 278.83 293.614 278.216 296.205 278.216C298.83 278.216 301.029 278.83 302.802 280.057C304.592 281.284 305.913 282.972 306.765 285.119H307.174C308.112 283.023 309.603 281.352 311.648 280.108C313.694 278.847 316.131 278.216 318.961 278.216C322.523 278.216 325.43 279.332 327.68 281.565C329.947 283.798 331.08 287.165 331.08 291.665V318H323.435V292.381C323.435 289.722 322.711 287.795 321.262 286.602C319.813 285.409 318.083 284.812 316.072 284.812C313.583 284.812 311.648 285.58 310.268 287.114C308.887 288.631 308.197 290.582 308.197 292.969V318H300.577V291.895C300.577 289.764 299.913 288.051 298.583 286.756C297.254 285.46 295.523 284.812 293.393 284.812C291.944 284.812 290.606 285.196 289.379 285.963C288.168 286.713 287.188 287.761 286.438 289.108C285.705 290.455 285.339 292.014 285.339 293.787V318H277.694ZM352.756 318.869C350.267 318.869 348.017 318.409 346.006 317.489C343.994 316.551 342.401 315.196 341.224 313.423C340.065 311.651 339.486 309.477 339.486 306.903C339.486 304.687 339.912 302.864 340.764 301.432C341.616 300 342.767 298.866 344.216 298.031C345.665 297.196 347.284 296.565 349.074 296.139C350.864 295.713 352.688 295.389 354.545 295.168C356.898 294.895 358.807 294.673 360.273 294.503C361.739 294.315 362.804 294.017 363.469 293.608C364.134 293.199 364.466 292.534 364.466 291.614V291.435C364.466 289.202 363.835 287.472 362.574 286.244C361.33 285.017 359.472 284.403 357 284.403C354.426 284.403 352.398 284.974 350.915 286.116C349.449 287.241 348.435 288.494 347.872 289.875L340.688 288.239C341.54 285.852 342.784 283.926 344.42 282.46C346.074 280.977 347.974 279.903 350.122 279.239C352.27 278.557 354.528 278.216 356.898 278.216C358.466 278.216 360.128 278.403 361.884 278.778C363.656 279.136 365.31 279.801 366.844 280.773C368.395 281.744 369.665 283.134 370.653 284.94C371.642 286.73 372.136 289.057 372.136 291.92V318H364.67V312.631H364.364C363.869 313.619 363.128 314.591 362.139 315.545C361.151 316.5 359.881 317.293 358.33 317.923C356.778 318.554 354.92 318.869 352.756 318.869ZM354.418 312.733C356.531 312.733 358.338 312.315 359.838 311.48C361.355 310.645 362.506 309.554 363.29 308.207C364.091 306.844 364.491 305.386 364.491 303.835V298.773C364.219 299.045 363.69 299.301 362.906 299.54C362.139 299.761 361.261 299.957 360.273 300.128C359.284 300.281 358.321 300.426 357.384 300.562C356.446 300.682 355.662 300.784 355.031 300.869C353.548 301.057 352.193 301.372 350.966 301.815C349.756 302.259 348.784 302.898 348.051 303.733C347.335 304.551 346.977 305.642 346.977 307.006C346.977 308.898 347.676 310.33 349.074 311.301C350.472 312.256 352.253 312.733 354.418 312.733ZM406.411 318H398.024L416.868 265.636H425.996L444.839 318H436.453L421.649 275.148H421.24L406.411 318ZM407.817 297.494H435.021V304.142H407.817V297.494ZM460.302 265.636V318H452.401V265.636H460.302ZM189.682 390.793C186 390.793 182.787 389.949 180.043 388.261C177.298 386.574 175.168 384.213 173.651 381.179C172.134 378.145 171.375 374.599 171.375 370.543C171.375 366.469 172.134 362.906 173.651 359.855C175.168 356.804 177.298 354.435 180.043 352.747C182.787 351.06 186 350.216 189.682 350.216C193.364 350.216 196.577 351.06 199.321 352.747C202.065 354.435 204.196 356.804 205.713 359.855C207.23 362.906 207.989 366.469 207.989 370.543C207.989 374.599 207.23 378.145 205.713 381.179C204.196 384.213 202.065 386.574 199.321 388.261C196.577 389.949 193.364 390.793 189.682 390.793ZM189.707 384.375C192.094 384.375 194.071 383.744 195.639 382.483C197.207 381.222 198.366 379.543 199.116 377.446C199.884 375.349 200.267 373.04 200.267 370.517C200.267 368.011 199.884 365.71 199.116 363.614C198.366 361.5 197.207 359.804 195.639 358.526C194.071 357.247 192.094 356.608 189.707 356.608C187.304 356.608 185.31 357.247 183.724 358.526C182.156 359.804 180.989 361.5 180.222 363.614C179.472 365.71 179.097 368.011 179.097 370.517C179.097 373.04 179.472 375.349 180.222 377.446C180.989 379.543 182.156 381.222 183.724 382.483C185.31 383.744 187.304 384.375 189.707 384.375ZM248.783 350.727L234.541 390H226.359L212.092 350.727H220.3L230.246 380.949H230.655L240.575 350.727H248.783ZM271.558 390.793C267.688 390.793 264.356 389.966 261.56 388.312C258.782 386.642 256.634 384.298 255.117 381.281C253.617 378.247 252.867 374.693 252.867 370.619C252.867 366.597 253.617 363.051 255.117 359.983C256.634 356.915 258.748 354.52 261.458 352.798C264.185 351.077 267.373 350.216 271.021 350.216C273.237 350.216 275.384 350.582 277.464 351.315C279.543 352.048 281.41 353.199 283.063 354.767C284.717 356.335 286.021 358.372 286.975 360.878C287.93 363.366 288.407 366.392 288.407 369.955V372.665H257.188V366.938H280.915C280.915 364.926 280.506 363.145 279.688 361.594C278.87 360.026 277.719 358.79 276.237 357.886C274.771 356.983 273.049 356.531 271.072 356.531C268.924 356.531 267.049 357.06 265.447 358.116C263.862 359.156 262.634 360.52 261.765 362.207C260.913 363.878 260.487 365.693 260.487 367.653V372.128C260.487 374.753 260.947 376.986 261.867 378.827C262.805 380.668 264.109 382.074 265.779 383.045C267.45 384 269.401 384.477 271.634 384.477C273.083 384.477 274.404 384.273 275.597 383.864C276.79 383.437 277.822 382.807 278.691 381.972C279.56 381.136 280.225 380.105 280.685 378.878L287.921 380.182C287.342 382.312 286.302 384.179 284.802 385.781C283.319 387.366 281.452 388.602 279.202 389.489C276.969 390.358 274.421 390.793 271.558 390.793ZM296.889 390V350.727H304.278V356.966H304.688C305.403 354.852 306.665 353.19 308.472 351.98C310.295 350.753 312.358 350.139 314.659 350.139C315.136 350.139 315.699 350.156 316.347 350.19C317.011 350.224 317.531 350.267 317.906 350.318V357.631C317.599 357.545 317.054 357.452 316.27 357.349C315.486 357.23 314.702 357.17 313.918 357.17C312.111 357.17 310.5 357.554 309.085 358.321C307.688 359.071 306.58 360.119 305.761 361.466C304.943 362.795 304.534 364.312 304.534 366.017V390H296.889ZM359.314 350.727L345.072 390H336.891L322.624 350.727H330.831L340.777 380.949H341.186L351.107 350.727H359.314ZM366.499 390V350.727H374.143V390H366.499ZM370.359 344.668C369.03 344.668 367.888 344.224 366.933 343.338C365.996 342.435 365.527 341.361 365.527 340.116C365.527 338.855 365.996 337.781 366.933 336.895C367.888 335.991 369.03 335.54 370.359 335.54C371.689 335.54 372.822 335.991 373.76 336.895C374.714 337.781 375.192 338.855 375.192 340.116C375.192 341.361 374.714 342.435 373.76 343.338C372.822 344.224 371.689 344.668 370.359 344.668ZM401.354 390.793C397.485 390.793 394.153 389.966 391.357 388.312C388.579 386.642 386.431 384.298 384.914 381.281C383.414 378.247 382.664 374.693 382.664 370.619C382.664 366.597 383.414 363.051 384.914 359.983C386.431 356.915 388.545 354.52 391.255 352.798C393.982 351.077 397.17 350.216 400.817 350.216C403.033 350.216 405.181 350.582 407.261 351.315C409.34 352.048 411.207 353.199 412.86 354.767C414.513 356.335 415.817 358.372 416.772 360.878C417.727 363.366 418.204 366.392 418.204 369.955V372.665H386.985V366.938H410.712C410.712 364.926 410.303 363.145 409.485 361.594C408.667 360.026 407.516 358.79 406.033 357.886C404.567 356.983 402.846 356.531 400.869 356.531C398.721 356.531 396.846 357.06 395.244 358.116C393.658 359.156 392.431 360.52 391.562 362.207C390.71 363.878 390.283 365.693 390.283 367.653V372.128C390.283 374.753 390.744 376.986 391.664 378.827C392.602 380.668 393.906 382.074 395.576 383.045C397.246 384 399.198 384.477 401.431 384.477C402.88 384.477 404.201 384.273 405.394 383.864C406.587 383.437 407.619 382.807 408.488 381.972C409.357 381.136 410.022 380.105 410.482 378.878L417.718 380.182C417.138 382.312 416.099 384.179 414.599 385.781C413.116 387.366 411.249 388.602 408.999 389.489C406.766 390.358 404.218 390.793 401.354 390.793ZM435.13 390L423.573 350.727H431.474L439.17 379.568H439.553L447.275 350.727H455.175L462.846 379.44H463.229L470.874 350.727H478.775L467.244 390H459.445L451.468 361.645H450.88L442.903 390H435.13Z" fill="#F3FFE3"/>
<path d="M182.045 445C181.858 444.426 181.611 443.912 181.304 443.457C181.003 442.997 180.642 442.605 180.222 442.281C179.807 441.957 179.335 441.71 178.807 441.54C178.278 441.369 177.699 441.284 177.068 441.284C176.034 441.284 175.094 441.551 174.247 442.085C173.401 442.619 172.727 443.406 172.227 444.446C171.727 445.486 171.477 446.761 171.477 448.273C171.477 449.784 171.73 451.06 172.236 452.099C172.741 453.139 173.426 453.926 174.29 454.46C175.153 454.994 176.125 455.261 177.205 455.261C178.205 455.261 179.085 455.048 179.847 454.622C180.614 454.19 181.21 453.582 181.636 452.798C182.068 452.009 182.284 451.08 182.284 450.011L182.932 450.148H177.682V448.273H184.33V450.148C184.33 451.585 184.023 452.835 183.409 453.898C182.801 454.96 181.96 455.784 180.886 456.369C179.818 456.949 178.591 457.239 177.205 457.239C175.659 457.239 174.301 456.875 173.131 456.148C171.966 455.42 171.057 454.386 170.403 453.045C169.756 451.705 169.432 450.114 169.432 448.273C169.432 446.892 169.616 445.651 169.986 444.548C170.361 443.44 170.889 442.497 171.571 441.719C172.253 440.94 173.06 440.344 173.991 439.929C174.923 439.514 175.949 439.307 177.068 439.307C177.989 439.307 178.847 439.446 179.642 439.724C180.443 439.997 181.156 440.386 181.781 440.892C182.412 441.392 182.938 441.991 183.358 442.69C183.778 443.384 184.068 444.153 184.227 445H182.045ZM193.165 457.273C191.904 457.273 190.816 456.994 189.901 456.438C188.992 455.875 188.29 455.091 187.796 454.085C187.308 453.074 187.063 451.898 187.063 450.557C187.063 449.216 187.308 448.034 187.796 447.011C188.29 445.983 188.978 445.182 189.859 444.608C190.745 444.028 191.779 443.739 192.961 443.739C193.643 443.739 194.316 443.852 194.981 444.08C195.646 444.307 196.251 444.676 196.796 445.188C197.342 445.693 197.776 446.364 198.1 447.199C198.424 448.034 198.586 449.062 198.586 450.284V451.136H188.495V449.398H196.54C196.54 448.659 196.393 448 196.097 447.42C195.808 446.841 195.393 446.384 194.853 446.048C194.319 445.713 193.688 445.545 192.961 445.545C192.16 445.545 191.467 445.744 190.881 446.142C190.302 446.534 189.856 447.045 189.543 447.676C189.231 448.307 189.075 448.983 189.075 449.705V450.864C189.075 451.852 189.245 452.69 189.586 453.378C189.933 454.06 190.413 454.58 191.026 454.938C191.64 455.29 192.353 455.466 193.165 455.466C193.694 455.466 194.171 455.392 194.597 455.244C195.029 455.091 195.401 454.864 195.714 454.562C196.026 454.256 196.268 453.875 196.438 453.42L198.381 453.966C198.177 454.625 197.833 455.205 197.35 455.705C196.867 456.199 196.271 456.585 195.56 456.864C194.85 457.136 194.052 457.273 193.165 457.273ZM207.339 443.909V445.614H200.555V443.909H207.339ZM202.532 440.773H204.543V453.25C204.543 453.818 204.626 454.244 204.79 454.528C204.961 454.807 205.177 454.994 205.438 455.091C205.705 455.182 205.987 455.227 206.282 455.227C206.504 455.227 206.685 455.216 206.827 455.193C206.969 455.165 207.083 455.142 207.168 455.125L207.577 456.932C207.441 456.983 207.251 457.034 207.006 457.085C206.762 457.142 206.452 457.17 206.077 457.17C205.509 457.17 204.952 457.048 204.407 456.804C203.867 456.56 203.418 456.188 203.06 455.688C202.708 455.188 202.532 454.557 202.532 453.795V440.773ZM216.058 443.909V445.614H209.273V443.909H216.058ZM211.251 440.773H213.262V453.25C213.262 453.818 213.344 454.244 213.509 454.528C213.68 454.807 213.896 454.994 214.157 455.091C214.424 455.182 214.705 455.227 215.001 455.227C215.222 455.227 215.404 455.216 215.546 455.193C215.688 455.165 215.802 455.142 215.887 455.125L216.296 456.932C216.16 456.983 215.969 457.034 215.725 457.085C215.481 457.142 215.171 457.17 214.796 457.17C214.228 457.17 213.671 457.048 213.126 456.804C212.586 456.56 212.137 456.188 211.779 455.688C211.427 455.188 211.251 454.557 211.251 453.795V440.773ZM219.083 457V443.909H221.094V457H219.083ZM220.106 441.727C219.714 441.727 219.376 441.594 219.092 441.327C218.813 441.06 218.674 440.739 218.674 440.364C218.674 439.989 218.813 439.668 219.092 439.401C219.376 439.134 219.714 439 220.106 439C220.498 439 220.833 439.134 221.112 439.401C221.396 439.668 221.538 439.989 221.538 440.364C221.538 440.739 221.396 441.06 221.112 441.327C220.833 441.594 220.498 441.727 220.106 441.727ZM226.79 449.125V457H224.778V443.909H226.722V445.955H226.892C227.199 445.29 227.665 444.756 228.29 444.352C228.915 443.943 229.722 443.739 230.71 443.739C231.597 443.739 232.372 443.92 233.037 444.284C233.702 444.642 234.219 445.188 234.588 445.92C234.957 446.648 235.142 447.568 235.142 448.682V457H233.131V448.818C233.131 447.79 232.864 446.989 232.33 446.415C231.795 445.835 231.063 445.545 230.131 445.545C229.489 445.545 228.915 445.685 228.409 445.963C227.909 446.241 227.514 446.648 227.224 447.182C226.935 447.716 226.79 448.364 226.79 449.125ZM244.102 462.182C243.13 462.182 242.295 462.057 241.596 461.807C240.897 461.562 240.315 461.239 239.849 460.835C239.388 460.438 239.022 460.011 238.749 459.557L240.352 458.432C240.533 458.67 240.763 458.943 241.042 459.25C241.32 459.562 241.701 459.832 242.184 460.06C242.673 460.293 243.312 460.409 244.102 460.409C245.158 460.409 246.031 460.153 246.718 459.642C247.406 459.131 247.749 458.33 247.749 457.239V454.58H247.579C247.431 454.818 247.221 455.114 246.948 455.466C246.681 455.812 246.295 456.122 245.789 456.395C245.289 456.662 244.613 456.795 243.761 456.795C242.704 456.795 241.755 456.545 240.914 456.045C240.079 455.545 239.417 454.818 238.928 453.864C238.445 452.909 238.204 451.75 238.204 450.386C238.204 449.045 238.44 447.878 238.911 446.884C239.383 445.884 240.039 445.111 240.88 444.565C241.721 444.014 242.692 443.739 243.795 443.739C244.647 443.739 245.323 443.881 245.823 444.165C246.329 444.443 246.715 444.761 246.982 445.119C247.255 445.472 247.465 445.761 247.613 445.989H247.817V443.909H249.761V457.375C249.761 458.5 249.505 459.415 248.994 460.119C248.488 460.83 247.806 461.349 246.948 461.679C246.096 462.014 245.147 462.182 244.102 462.182ZM244.033 454.989C244.84 454.989 245.522 454.804 246.079 454.435C246.636 454.065 247.059 453.534 247.349 452.841C247.638 452.148 247.783 451.318 247.783 450.352C247.783 449.409 247.641 448.577 247.357 447.855C247.073 447.134 246.653 446.568 246.096 446.159C245.539 445.75 244.852 445.545 244.033 445.545C243.181 445.545 242.471 445.761 241.903 446.193C241.34 446.625 240.917 447.205 240.633 447.932C240.354 448.659 240.215 449.466 240.215 450.352C240.215 451.261 240.357 452.065 240.641 452.764C240.931 453.457 241.357 454.003 241.92 454.401C242.488 454.793 243.192 454.989 244.033 454.989ZM269.465 446.841L267.658 447.352C267.545 447.051 267.377 446.759 267.156 446.474C266.94 446.185 266.644 445.946 266.269 445.759C265.894 445.571 265.414 445.477 264.829 445.477C264.028 445.477 263.36 445.662 262.826 446.031C262.298 446.395 262.033 446.858 262.033 447.42C262.033 447.92 262.215 448.315 262.579 448.605C262.942 448.895 263.511 449.136 264.283 449.33L266.227 449.807C267.397 450.091 268.269 450.526 268.843 451.111C269.417 451.69 269.704 452.437 269.704 453.352C269.704 454.102 269.488 454.773 269.056 455.364C268.63 455.955 268.033 456.42 267.266 456.761C266.499 457.102 265.607 457.273 264.59 457.273C263.255 457.273 262.15 456.983 261.275 456.403C260.4 455.824 259.846 454.977 259.613 453.864L261.522 453.386C261.704 454.091 262.048 454.619 262.553 454.972C263.065 455.324 263.732 455.5 264.556 455.5C265.494 455.5 266.238 455.301 266.789 454.903C267.346 454.5 267.624 454.017 267.624 453.455C267.624 453 267.465 452.619 267.147 452.312C266.829 452 266.34 451.767 265.681 451.614L263.499 451.102C262.3 450.818 261.42 450.378 260.857 449.781C260.3 449.179 260.022 448.426 260.022 447.523C260.022 446.784 260.229 446.131 260.644 445.562C261.065 444.994 261.636 444.548 262.357 444.224C263.085 443.901 263.908 443.739 264.829 443.739C266.124 443.739 267.141 444.023 267.88 444.591C268.624 445.159 269.153 445.909 269.465 446.841ZM278.425 443.909V445.614H271.641V443.909H278.425ZM273.618 440.773H275.629V453.25C275.629 453.818 275.712 454.244 275.876 454.528C276.047 454.807 276.263 454.994 276.524 455.091C276.791 455.182 277.072 455.227 277.368 455.227C277.589 455.227 277.771 455.216 277.913 455.193C278.055 455.165 278.169 455.142 278.254 455.125L278.663 456.932C278.527 456.983 278.337 457.034 278.092 457.085C277.848 457.142 277.538 457.17 277.163 457.17C276.595 457.17 276.038 457.048 275.493 456.804C274.953 456.56 274.504 456.188 274.146 455.688C273.794 455.188 273.618 454.557 273.618 453.795V440.773ZM285.303 457.307C284.473 457.307 283.72 457.151 283.044 456.838C282.368 456.52 281.831 456.062 281.433 455.466C281.036 454.864 280.837 454.136 280.837 453.284C280.837 452.534 280.984 451.926 281.28 451.46C281.575 450.989 281.97 450.619 282.464 450.352C282.959 450.085 283.504 449.886 284.101 449.756C284.703 449.619 285.308 449.511 285.916 449.432C286.712 449.33 287.357 449.253 287.851 449.202C288.351 449.145 288.714 449.051 288.942 448.92C289.175 448.79 289.291 448.562 289.291 448.239V448.17C289.291 447.33 289.061 446.676 288.601 446.21C288.146 445.744 287.456 445.511 286.53 445.511C285.57 445.511 284.817 445.722 284.271 446.142C283.726 446.562 283.342 447.011 283.121 447.489L281.212 446.807C281.553 446.011 282.007 445.392 282.575 444.949C283.149 444.5 283.774 444.187 284.45 444.011C285.132 443.83 285.803 443.739 286.462 443.739C286.882 443.739 287.365 443.79 287.911 443.892C288.462 443.989 288.993 444.19 289.504 444.497C290.021 444.804 290.45 445.267 290.791 445.886C291.132 446.506 291.303 447.335 291.303 448.375V457H289.291V455.227H289.189C289.053 455.511 288.825 455.815 288.507 456.139C288.189 456.463 287.766 456.739 287.237 456.966C286.709 457.193 286.064 457.307 285.303 457.307ZM285.609 455.5C286.405 455.5 287.075 455.344 287.621 455.031C288.172 454.719 288.587 454.315 288.865 453.821C289.149 453.327 289.291 452.807 289.291 452.261V450.42C289.206 450.523 289.018 450.616 288.729 450.702C288.445 450.781 288.115 450.852 287.74 450.915C287.371 450.972 287.01 451.023 286.658 451.068C286.311 451.108 286.03 451.142 285.814 451.17C285.291 451.239 284.803 451.349 284.348 451.503C283.899 451.651 283.536 451.875 283.257 452.176C282.984 452.472 282.848 452.875 282.848 453.386C282.848 454.085 283.107 454.614 283.624 454.972C284.146 455.324 284.808 455.5 285.609 455.5ZM294.974 457V443.909H296.917V445.886H297.053C297.292 445.239 297.724 444.713 298.349 444.31C298.974 443.906 299.678 443.705 300.462 443.705C300.61 443.705 300.795 443.707 301.016 443.713C301.238 443.719 301.406 443.727 301.519 443.739V445.784C301.451 445.767 301.295 445.741 301.05 445.707C300.812 445.668 300.559 445.648 300.292 445.648C299.656 445.648 299.087 445.781 298.587 446.048C298.093 446.31 297.701 446.673 297.411 447.139C297.127 447.599 296.985 448.125 296.985 448.716V457H294.974ZM310.417 443.909V445.614H303.633V443.909H310.417ZM305.61 440.773H307.621V453.25C307.621 453.818 307.704 454.244 307.869 454.528C308.039 454.807 308.255 454.994 308.516 455.091C308.783 455.182 309.065 455.227 309.36 455.227C309.582 455.227 309.763 455.216 309.906 455.193C310.048 455.165 310.161 455.142 310.246 455.125L310.656 456.932C310.519 456.983 310.329 457.034 310.085 457.085C309.84 457.142 309.531 457.17 309.156 457.17C308.587 457.17 308.031 457.048 307.485 456.804C306.945 456.56 306.496 456.188 306.138 455.688C305.786 455.188 305.61 454.557 305.61 453.795V440.773ZM318.79 457.273C317.529 457.273 316.441 456.994 315.526 456.438C314.617 455.875 313.915 455.091 313.421 454.085C312.933 453.074 312.688 451.898 312.688 450.557C312.688 449.216 312.933 448.034 313.421 447.011C313.915 445.983 314.603 445.182 315.484 444.608C316.37 444.028 317.404 443.739 318.586 443.739C319.268 443.739 319.941 443.852 320.606 444.08C321.271 444.307 321.876 444.676 322.421 445.188C322.967 445.693 323.401 446.364 323.725 447.199C324.049 448.034 324.211 449.062 324.211 450.284V451.136H314.12V449.398H322.165C322.165 448.659 322.018 448 321.722 447.42C321.433 446.841 321.018 446.384 320.478 446.048C319.944 445.713 319.313 445.545 318.586 445.545C317.785 445.545 317.092 445.744 316.506 446.142C315.927 446.534 315.481 447.045 315.168 447.676C314.856 448.307 314.7 448.983 314.7 449.705V450.864C314.7 451.852 314.87 452.69 315.211 453.378C315.558 454.06 316.038 454.58 316.651 454.938C317.265 455.29 317.978 455.466 318.79 455.466C319.319 455.466 319.796 455.392 320.222 455.244C320.654 455.091 321.026 454.864 321.339 454.562C321.651 454.256 321.893 453.875 322.063 453.42L324.006 453.966C323.802 454.625 323.458 455.205 322.975 455.705C322.492 456.199 321.896 456.585 321.185 456.864C320.475 457.136 319.677 457.273 318.79 457.273ZM332.214 457.273C331.123 457.273 330.16 456.997 329.325 456.446C328.489 455.889 327.836 455.105 327.364 454.094C326.893 453.077 326.657 451.875 326.657 450.489C326.657 449.114 326.893 447.92 327.364 446.909C327.836 445.898 328.492 445.116 329.333 444.565C330.174 444.014 331.146 443.739 332.248 443.739C333.1 443.739 333.773 443.881 334.268 444.165C334.768 444.443 335.148 444.761 335.41 445.119C335.677 445.472 335.884 445.761 336.032 445.989H336.202V439.545H338.214V457H336.271V454.989H336.032C335.884 455.227 335.674 455.528 335.401 455.892C335.129 456.25 334.739 456.571 334.234 456.855C333.728 457.134 333.055 457.273 332.214 457.273ZM332.487 455.466C333.293 455.466 333.975 455.256 334.532 454.835C335.089 454.409 335.512 453.821 335.802 453.071C336.092 452.315 336.237 451.443 336.237 450.455C336.237 449.477 336.094 448.622 335.81 447.889C335.526 447.151 335.106 446.577 334.549 446.168C333.992 445.753 333.305 445.545 332.487 445.545C331.634 445.545 330.924 445.764 330.356 446.202C329.793 446.634 329.37 447.222 329.086 447.966C328.808 448.705 328.668 449.534 328.668 450.455C328.668 451.386 328.81 452.233 329.094 452.994C329.384 453.75 329.81 454.352 330.373 454.801C330.941 455.244 331.646 455.466 332.487 455.466ZM351.893 457L347.904 443.909H350.018L352.847 453.932H352.984L355.779 443.909H357.927L360.688 453.898H360.825L363.654 443.909H365.768L361.779 457H359.802L356.938 446.943H356.734L353.87 457H351.893ZM368.427 457V443.909H370.438V457H368.427ZM369.45 441.727C369.058 441.727 368.719 441.594 368.435 441.327C368.157 441.06 368.018 440.739 368.018 440.364C368.018 439.989 368.157 439.668 368.435 439.401C368.719 439.134 369.058 439 369.45 439C369.842 439 370.177 439.134 370.455 439.401C370.739 439.668 370.881 439.989 370.881 440.364C370.881 440.739 370.739 441.06 370.455 441.327C370.177 441.594 369.842 441.727 369.45 441.727ZM379.815 443.909V445.614H373.031V443.909H379.815ZM375.009 440.773H377.02V453.25C377.02 453.818 377.102 454.244 377.267 454.528C377.438 454.807 377.653 454.994 377.915 455.091C378.182 455.182 378.463 455.227 378.759 455.227C378.98 455.227 379.162 455.216 379.304 455.193C379.446 455.165 379.56 455.142 379.645 455.125L380.054 456.932C379.918 456.983 379.727 457.034 379.483 457.085C379.239 457.142 378.929 457.17 378.554 457.17C377.986 457.17 377.429 457.048 376.884 456.804C376.344 456.56 375.895 456.188 375.537 455.688C375.185 455.188 375.009 454.557 375.009 453.795V440.773ZM385.134 449.125V457H383.122V439.545H385.134V445.955H385.304C385.611 445.278 386.071 444.741 386.685 444.344C387.304 443.94 388.128 443.739 389.156 443.739C390.048 443.739 390.83 443.918 391.5 444.276C392.17 444.628 392.69 445.17 393.06 445.903C393.435 446.631 393.622 447.557 393.622 448.682V457H391.611V448.818C391.611 447.778 391.341 446.974 390.801 446.406C390.267 445.832 389.526 445.545 388.577 445.545C387.918 445.545 387.327 445.685 386.804 445.963C386.287 446.241 385.878 446.648 385.577 447.182C385.281 447.716 385.134 448.364 385.134 449.125ZM409.745 443.909V445.614H402.961V443.909H409.745ZM404.938 440.773H406.95V453.25C406.95 453.818 407.032 454.244 407.197 454.528C407.367 454.807 407.583 454.994 407.844 455.091C408.112 455.182 408.393 455.227 408.688 455.227C408.91 455.227 409.092 455.216 409.234 455.193C409.376 455.165 409.489 455.142 409.575 455.125L409.984 456.932C409.847 456.983 409.657 457.034 409.413 457.085C409.168 457.142 408.859 457.17 408.484 457.17C407.915 457.17 407.359 457.048 406.813 456.804C406.273 456.56 405.825 456.188 405.467 455.688C405.114 455.188 404.938 454.557 404.938 453.795V440.773ZM415.063 449.125V457H413.052V439.545H415.063V445.955H415.234C415.54 445.278 416.001 444.741 416.614 444.344C417.234 443.94 418.058 443.739 419.086 443.739C419.978 443.739 420.759 443.918 421.43 444.276C422.1 444.628 422.62 445.17 422.989 445.903C423.364 446.631 423.552 447.557 423.552 448.682V457H421.54V448.818C421.54 447.778 421.271 446.974 420.731 446.406C420.197 445.832 419.455 445.545 418.506 445.545C417.847 445.545 417.256 445.685 416.734 445.963C416.217 446.241 415.808 446.648 415.506 447.182C415.211 447.716 415.063 448.364 415.063 449.125ZM432.72 457.273C431.459 457.273 430.371 456.994 429.456 456.438C428.547 455.875 427.845 455.091 427.351 454.085C426.862 453.074 426.618 451.898 426.618 450.557C426.618 449.216 426.862 448.034 427.351 447.011C427.845 445.983 428.533 445.182 429.413 444.608C430.3 444.028 431.334 443.739 432.516 443.739C433.197 443.739 433.871 443.852 434.536 444.08C435.2 444.307 435.805 444.676 436.351 445.188C436.896 445.693 437.331 446.364 437.655 447.199C437.979 448.034 438.141 449.062 438.141 450.284V451.136H428.05V449.398H436.095C436.095 448.659 435.947 448 435.652 447.42C435.362 446.841 434.947 446.384 434.408 446.048C433.874 445.713 433.243 445.545 432.516 445.545C431.714 445.545 431.021 445.744 430.436 446.142C429.857 446.534 429.411 447.045 429.098 447.676C428.786 448.307 428.629 448.983 428.629 449.705V450.864C428.629 451.852 428.8 452.69 429.141 453.378C429.487 454.06 429.967 454.58 430.581 454.938C431.195 455.29 431.908 455.466 432.72 455.466C433.249 455.466 433.726 455.392 434.152 455.244C434.584 455.091 434.956 454.864 435.268 454.562C435.581 454.256 435.822 453.875 435.993 453.42L437.936 453.966C437.732 454.625 437.388 455.205 436.905 455.705C436.422 456.199 435.825 456.585 435.115 456.864C434.405 457.136 433.607 457.273 432.72 457.273ZM448.223 457V439.545H458.689V441.42H450.337V447.318H457.905V449.193H450.337V457H448.223ZM462.036 457V443.909H464.048V457H462.036ZM463.059 441.727C462.667 441.727 462.329 441.594 462.045 441.327C461.766 441.06 461.627 440.739 461.627 440.364C461.627 439.989 461.766 439.668 462.045 439.401C462.329 439.134 462.667 439 463.059 439C463.451 439 463.786 439.134 464.065 439.401C464.349 439.668 464.491 439.989 464.491 440.364C464.491 440.739 464.349 441.06 464.065 441.327C463.786 441.594 463.451 441.727 463.059 441.727ZM473.016 462.182C472.044 462.182 471.209 462.057 470.51 461.807C469.811 461.562 469.229 461.239 468.763 460.835C468.303 460.438 467.936 460.011 467.663 459.557L469.266 458.432C469.447 458.67 469.678 458.943 469.956 459.25C470.234 459.562 470.615 459.832 471.098 460.06C471.587 460.293 472.226 460.409 473.016 460.409C474.072 460.409 474.945 460.153 475.632 459.642C476.32 459.131 476.663 458.33 476.663 457.239V454.58H476.493C476.345 454.818 476.135 455.114 475.862 455.466C475.595 455.812 475.209 456.122 474.703 456.395C474.203 456.662 473.527 456.795 472.675 456.795C471.618 456.795 470.669 456.545 469.828 456.045C468.993 455.545 468.331 454.818 467.842 453.864C467.359 452.909 467.118 451.75 467.118 450.386C467.118 449.045 467.354 447.878 467.825 446.884C468.297 445.884 468.953 445.111 469.794 444.565C470.635 444.014 471.607 443.739 472.709 443.739C473.561 443.739 474.237 443.881 474.737 444.165C475.243 444.443 475.629 444.761 475.896 445.119C476.169 445.472 476.379 445.761 476.527 445.989H476.732V443.909H478.675V457.375C478.675 458.5 478.419 459.415 477.908 460.119C477.402 460.83 476.72 461.349 475.862 461.679C475.01 462.014 474.061 462.182 473.016 462.182ZM472.947 454.989C473.754 454.989 474.436 454.804 474.993 454.435C475.55 454.065 475.973 453.534 476.263 452.841C476.553 452.148 476.697 451.318 476.697 450.352C476.697 449.409 476.555 448.577 476.271 447.855C475.987 447.134 475.567 446.568 475.01 446.159C474.453 445.75 473.766 445.545 472.947 445.545C472.095 445.545 471.385 445.761 470.817 446.193C470.254 446.625 469.831 447.205 469.547 447.932C469.268 448.659 469.129 449.466 469.129 450.352C469.129 451.261 469.271 452.065 469.555 452.764C469.845 453.457 470.271 454.003 470.834 454.401C471.402 454.793 472.107 454.989 472.947 454.989ZM482.357 457V443.909H484.3V445.955H484.47C484.743 445.256 485.183 444.713 485.791 444.327C486.399 443.935 487.129 443.739 487.982 443.739C488.845 443.739 489.564 443.935 490.138 444.327C490.717 444.713 491.169 445.256 491.493 445.955H491.629C491.964 445.278 492.467 444.741 493.138 444.344C493.808 443.94 494.612 443.739 495.55 443.739C496.72 443.739 497.678 444.105 498.422 444.838C499.166 445.565 499.538 446.699 499.538 448.239V457H497.527V448.239C497.527 447.273 497.263 446.582 496.734 446.168C496.206 445.753 495.584 445.545 494.868 445.545C493.947 445.545 493.234 445.824 492.729 446.381C492.223 446.932 491.97 447.631 491.97 448.477V457H489.925V448.034C489.925 447.29 489.683 446.69 489.2 446.236C488.717 445.776 488.095 445.545 487.334 445.545C486.811 445.545 486.322 445.685 485.868 445.963C485.419 446.241 485.055 446.628 484.777 447.122C484.504 447.611 484.368 448.176 484.368 448.818V457H482.357ZM507.068 457.307C506.239 457.307 505.486 457.151 504.81 456.838C504.134 456.52 503.597 456.062 503.199 455.466C502.801 454.864 502.602 454.136 502.602 453.284C502.602 452.534 502.75 451.926 503.045 451.46C503.341 450.989 503.736 450.619 504.23 450.352C504.724 450.085 505.27 449.886 505.866 449.756C506.469 449.619 507.074 449.511 507.682 449.432C508.477 449.33 509.122 449.253 509.616 449.202C510.116 449.145 510.48 449.051 510.707 448.92C510.94 448.79 511.057 448.562 511.057 448.239V448.17C511.057 447.33 510.827 446.676 510.366 446.21C509.912 445.744 509.222 445.511 508.295 445.511C507.335 445.511 506.582 445.722 506.037 446.142C505.491 446.562 505.108 447.011 504.886 447.489L502.977 446.807C503.318 446.011 503.773 445.392 504.341 444.949C504.915 444.5 505.54 444.187 506.216 444.011C506.898 443.83 507.568 443.739 508.227 443.739C508.648 443.739 509.131 443.79 509.676 443.892C510.227 443.989 510.759 444.19 511.27 444.497C511.787 444.804 512.216 445.267 512.557 445.886C512.898 446.506 513.068 447.335 513.068 448.375V457H511.057V455.227H510.955C510.818 455.511 510.591 455.815 510.273 456.139C509.955 456.463 509.531 456.739 509.003 456.966C508.474 457.193 507.83 457.307 507.068 457.307ZM507.375 455.5C508.17 455.5 508.841 455.344 509.386 455.031C509.938 454.719 510.352 454.315 510.631 453.821C510.915 453.327 511.057 452.807 511.057 452.261V450.42C510.972 450.523 510.784 450.616 510.494 450.702C510.21 450.781 509.881 450.852 509.506 450.915C509.136 450.972 508.776 451.023 508.423 451.068C508.077 451.108 507.795 451.142 507.58 451.17C507.057 451.239 506.568 451.349 506.114 451.503C505.665 451.651 505.301 451.875 505.023 452.176C504.75 452.472 504.614 452.875 504.614 453.386C504.614 454.085 504.872 454.614 505.389 454.972C505.912 455.324 506.574 455.5 507.375 455.5ZM524.478 457H522.262L528.671 439.545H530.853L537.262 457H535.046L529.83 442.307H529.694L524.478 457ZM525.296 450.182H534.228V452.057H525.296V450.182ZM542.094 439.545V457H539.981V439.545H542.094ZM553.082 457V439.545H555.094V445.989H555.264C555.412 445.761 555.616 445.472 555.878 445.119C556.145 444.761 556.526 444.443 557.02 444.165C557.52 443.881 558.196 443.739 559.048 443.739C560.151 443.739 561.122 444.014 561.963 444.565C562.804 445.116 563.46 445.898 563.932 446.909C564.403 447.92 564.639 449.114 564.639 450.489C564.639 451.875 564.403 453.077 563.932 454.094C563.46 455.105 562.807 455.889 561.972 456.446C561.136 456.997 560.173 457.273 559.082 457.273C558.241 457.273 557.568 457.134 557.062 456.855C556.557 456.571 556.168 456.25 555.895 455.892C555.622 455.528 555.412 455.227 555.264 454.989H555.026V457H553.082ZM555.06 450.455C555.06 451.443 555.205 452.315 555.494 453.071C555.784 453.821 556.207 454.409 556.764 454.835C557.321 455.256 558.003 455.466 558.81 455.466C559.651 455.466 560.352 455.244 560.915 454.801C561.483 454.352 561.909 453.75 562.193 452.994C562.483 452.233 562.628 451.386 562.628 450.455C562.628 449.534 562.486 448.705 562.202 447.966C561.923 447.222 561.5 446.634 560.932 446.202C560.369 445.764 559.662 445.545 558.81 445.545C557.991 445.545 557.304 445.753 556.747 446.168C556.19 446.577 555.77 447.151 555.486 447.889C555.202 448.622 555.06 449.477 555.06 450.455ZM573.205 457.273C571.943 457.273 570.855 456.994 569.94 456.438C569.031 455.875 568.33 455.091 567.835 454.085C567.347 453.074 567.102 451.898 567.102 450.557C567.102 449.216 567.347 448.034 567.835 447.011C568.33 445.983 569.017 445.182 569.898 444.608C570.784 444.028 571.818 443.739 573 443.739C573.682 443.739 574.355 443.852 575.02 444.08C575.685 444.307 576.29 444.676 576.835 445.188C577.381 445.693 577.815 446.364 578.139 447.199C578.463 448.034 578.625 449.062 578.625 450.284V451.136H568.534V449.398H576.58C576.58 448.659 576.432 448 576.136 447.42C575.847 446.841 575.432 446.384 574.892 446.048C574.358 445.713 573.727 445.545 573 445.545C572.199 445.545 571.506 445.744 570.92 446.142C570.341 446.534 569.895 447.045 569.582 447.676C569.27 448.307 569.114 448.983 569.114 449.705V450.864C569.114 451.852 569.284 452.69 569.625 453.378C569.972 454.06 570.452 454.58 571.065 454.938C571.679 455.29 572.392 455.466 573.205 455.466C573.733 455.466 574.21 455.392 574.636 455.244C575.068 455.091 575.44 454.864 575.753 454.562C576.065 454.256 576.307 453.875 576.477 453.42L578.42 453.966C578.216 454.625 577.872 455.205 577.389 455.705C576.906 456.199 576.31 456.585 575.599 456.864C574.889 457.136 574.091 457.273 573.205 457.273ZM587.378 443.909V445.614H580.594V443.909H587.378ZM582.571 440.773H584.582V453.25C584.582 453.818 584.665 454.244 584.83 454.528C585 454.807 585.216 454.994 585.477 455.091C585.744 455.182 586.026 455.227 586.321 455.227C586.543 455.227 586.724 455.216 586.866 455.193C587.009 455.165 587.122 455.142 587.207 455.125L587.616 456.932C587.48 456.983 587.29 457.034 587.045 457.085C586.801 457.142 586.491 457.17 586.116 457.17C585.548 457.17 584.991 457.048 584.446 456.804C583.906 456.56 583.457 456.188 583.099 455.688C582.747 455.188 582.571 454.557 582.571 453.795V440.773ZM594.256 457.307C593.426 457.307 592.673 457.151 591.997 456.838C591.321 456.52 590.784 456.062 590.386 455.466C589.989 454.864 589.79 454.136 589.79 453.284C589.79 452.534 589.938 451.926 590.233 451.46C590.528 450.989 590.923 450.619 591.418 450.352C591.912 450.085 592.457 449.886 593.054 449.756C593.656 449.619 594.261 449.511 594.869 449.432C595.665 449.33 596.31 449.253 596.804 449.202C597.304 449.145 597.668 449.051 597.895 448.92C598.128 448.79 598.244 448.562 598.244 448.239V448.17C598.244 447.33 598.014 446.676 597.554 446.21C597.099 445.744 596.409 445.511 595.483 445.511C594.523 445.511 593.77 445.722 593.224 446.142C592.679 446.562 592.295 447.011 592.074 447.489L590.165 446.807C590.506 446.011 590.96 445.392 591.528 444.949C592.102 444.5 592.727 444.187 593.403 444.011C594.085 443.83 594.756 443.739 595.415 443.739C595.835 443.739 596.318 443.79 596.864 443.892C597.415 443.989 597.946 444.19 598.457 444.497C598.974 444.804 599.403 445.267 599.744 445.886C600.085 446.506 600.256 447.335 600.256 448.375V457H598.244V455.227H598.142C598.006 455.511 597.778 455.815 597.46 456.139C597.142 456.463 596.719 456.739 596.19 456.966C595.662 457.193 595.017 457.307 594.256 457.307ZM594.562 455.5C595.358 455.5 596.028 455.344 596.574 455.031C597.125 454.719 597.54 454.315 597.818 453.821C598.102 453.327 598.244 452.807 598.244 452.261V450.42C598.159 450.523 597.972 450.616 597.682 450.702C597.398 450.781 597.068 450.852 596.693 450.915C596.324 450.972 595.963 451.023 595.611 451.068C595.264 451.108 594.983 451.142 594.767 451.17C594.244 451.239 593.756 451.349 593.301 451.503C592.852 451.651 592.489 451.875 592.21 452.176C591.938 452.472 591.801 452.875 591.801 453.386C591.801 454.085 592.06 454.614 592.577 454.972C593.099 455.324 593.761 455.5 594.562 455.5ZM605.393 457.136C604.972 457.136 604.612 456.986 604.31 456.685C604.009 456.384 603.859 456.023 603.859 455.602C603.859 455.182 604.009 454.821 604.31 454.52C604.612 454.219 604.972 454.068 605.393 454.068C605.813 454.068 606.174 454.219 606.475 454.52C606.776 454.821 606.927 455.182 606.927 455.602C606.927 455.881 606.856 456.136 606.714 456.369C606.577 456.602 606.393 456.79 606.16 456.932C605.933 457.068 605.677 457.136 605.393 457.136Z" fill="#F3FFE3"/>
<rect x="168" y="496" width="144" height="48" rx="8" fill="white"/>
<path d="M196.688 518.492H193.888C193.837 518.13 193.733 517.808 193.575 517.527C193.418 517.241 193.215 516.999 192.968 516.798C192.721 516.598 192.435 516.445 192.112 516.338C191.792 516.232 191.445 516.178 191.07 516.178C190.392 516.178 189.802 516.347 189.299 516.683C188.796 517.016 188.406 517.501 188.129 518.141C187.852 518.776 187.714 519.547 187.714 520.455C187.714 521.388 187.852 522.172 188.129 522.807C188.411 523.442 188.803 523.921 189.305 524.245C189.808 524.569 190.39 524.731 191.05 524.731C191.421 524.731 191.764 524.682 192.08 524.584C192.399 524.486 192.683 524.343 192.93 524.156C193.177 523.964 193.381 523.732 193.543 523.459C193.71 523.186 193.825 522.875 193.888 522.526L196.688 522.538C196.616 523.139 196.435 523.719 196.145 524.277C195.859 524.831 195.474 525.327 194.988 525.766C194.506 526.201 193.931 526.546 193.262 526.802C192.597 527.053 191.845 527.179 191.006 527.179C189.838 527.179 188.794 526.915 187.874 526.386C186.957 525.858 186.233 525.093 185.7 524.092C185.172 523.09 184.908 521.878 184.908 520.455C184.908 519.027 185.176 517.812 185.713 516.811C186.25 515.81 186.979 515.047 187.899 514.523C188.82 513.994 189.855 513.73 191.006 513.73C191.764 513.73 192.467 513.837 193.115 514.05C193.767 514.263 194.344 514.574 194.847 514.983C195.35 515.388 195.759 515.884 196.075 516.472C196.394 517.06 196.599 517.734 196.688 518.492ZM203.058 527.192C202.065 527.192 201.206 526.981 200.482 526.559C199.762 526.133 199.206 525.54 198.814 524.782C198.422 524.019 198.225 523.135 198.225 522.129C198.225 521.115 198.422 520.229 198.814 519.47C199.206 518.707 199.762 518.115 200.482 517.693C201.206 517.267 202.065 517.054 203.058 517.054C204.051 517.054 204.907 517.267 205.627 517.693C206.352 518.115 206.91 518.707 207.302 519.47C207.694 520.229 207.89 521.115 207.89 522.129C207.89 523.135 207.694 524.019 207.302 524.782C206.91 525.54 206.352 526.133 205.627 526.559C204.907 526.981 204.051 527.192 203.058 527.192ZM203.071 525.082C203.522 525.082 203.9 524.955 204.202 524.699C204.505 524.439 204.733 524.085 204.886 523.638C205.044 523.19 205.123 522.681 205.123 522.11C205.123 521.539 205.044 521.03 204.886 520.582C204.733 520.135 204.505 519.781 204.202 519.521C203.9 519.261 203.522 519.131 203.071 519.131C202.615 519.131 202.231 519.261 201.92 519.521C201.613 519.781 201.381 520.135 201.223 520.582C201.07 521.03 200.993 521.539 200.993 522.11C200.993 522.681 201.07 523.19 201.223 523.638C201.381 524.085 201.613 524.439 201.92 524.699C202.231 524.955 202.615 525.082 203.071 525.082ZM212.384 521.324V527H209.661V517.182H212.256V518.914H212.371C212.588 518.343 212.953 517.891 213.464 517.559C213.975 517.222 214.596 517.054 215.324 517.054C216.006 517.054 216.6 517.203 217.108 517.501C217.615 517.8 218.009 518.226 218.29 518.78C218.571 519.33 218.712 519.986 218.712 520.749V527H215.989V521.234C215.993 520.634 215.84 520.165 215.529 519.828C215.218 519.487 214.789 519.317 214.244 519.317C213.877 519.317 213.554 519.396 213.272 519.553C212.995 519.711 212.778 519.941 212.62 520.244C212.467 520.542 212.388 520.902 212.384 521.324ZM226.08 517.182V519.227H220.168V517.182H226.08ZM221.51 514.83H224.233V523.983C224.233 524.234 224.271 524.43 224.348 524.571C224.425 524.707 224.531 524.803 224.668 524.859C224.808 524.914 224.97 524.942 225.154 524.942C225.281 524.942 225.409 524.931 225.537 524.91C225.665 524.884 225.763 524.865 225.831 524.852L226.259 526.879C226.123 526.921 225.931 526.97 225.684 527.026C225.437 527.085 225.137 527.121 224.783 527.134C224.127 527.16 223.551 527.072 223.057 526.872C222.567 526.672 222.186 526.361 221.913 525.939C221.64 525.517 221.506 524.984 221.51 524.341V514.83ZM227.854 527V517.182H230.577V527H227.854ZM229.222 515.916C228.817 515.916 228.47 515.782 228.18 515.513C227.895 515.241 227.752 514.915 227.752 514.536C227.752 514.161 227.895 513.839 228.18 513.57C228.47 513.298 228.817 513.161 229.222 513.161C229.627 513.161 229.972 513.298 230.258 513.57C230.547 513.839 230.692 514.161 230.692 514.536C230.692 514.915 230.547 515.241 230.258 515.513C229.972 515.782 229.627 515.916 229.222 515.916ZM235.482 521.324V527H232.759V517.182H235.354V518.914H235.469C235.686 518.343 236.05 517.891 236.562 517.559C237.073 517.222 237.693 517.054 238.422 517.054C239.104 517.054 239.698 517.203 240.205 517.501C240.712 517.8 241.107 518.226 241.388 518.78C241.669 519.33 241.81 519.986 241.81 520.749V527H239.087V521.234C239.091 520.634 238.938 520.165 238.626 519.828C238.315 519.487 237.887 519.317 237.342 519.317C236.975 519.317 236.651 519.396 236.37 519.553C236.093 519.711 235.876 519.941 235.718 520.244C235.565 520.542 235.486 520.902 235.482 521.324ZM250.252 522.82V517.182H252.975V527H250.361V525.217H250.258C250.037 525.792 249.668 526.254 249.153 526.604C248.641 526.953 248.017 527.128 247.28 527.128C246.623 527.128 246.046 526.979 245.547 526.68C245.049 526.382 244.659 525.958 244.378 525.408C244.101 524.859 243.96 524.2 243.956 523.433V517.182H246.679V522.947C246.683 523.527 246.839 523.985 247.145 524.322C247.452 524.658 247.863 524.827 248.379 524.827C248.707 524.827 249.014 524.752 249.3 524.603C249.585 524.45 249.815 524.224 249.99 523.925C250.169 523.627 250.256 523.259 250.252 522.82ZM259.627 527.192C258.618 527.192 257.748 526.987 257.02 526.578C256.295 526.165 255.737 525.581 255.345 524.827C254.953 524.068 254.757 523.171 254.757 522.136C254.757 521.126 254.953 520.239 255.345 519.477C255.737 518.714 256.289 518.119 257 517.693C257.716 517.267 258.556 517.054 259.519 517.054C260.167 517.054 260.77 517.158 261.328 517.367C261.89 517.572 262.38 517.881 262.798 518.294C263.22 518.707 263.548 519.227 263.782 519.854C264.017 520.476 264.134 521.205 264.134 522.04V522.788H255.843V521.1H261.571C261.571 520.708 261.485 520.361 261.315 520.058C261.145 519.756 260.908 519.519 260.605 519.349C260.307 519.174 259.96 519.087 259.564 519.087C259.15 519.087 258.784 519.183 258.464 519.374C258.149 519.562 257.902 519.815 257.723 520.135C257.544 520.45 257.452 520.802 257.448 521.19V522.794C257.448 523.28 257.537 523.7 257.716 524.053C257.9 524.407 258.157 524.68 258.49 524.871C258.822 525.063 259.216 525.159 259.672 525.159C259.975 525.159 260.252 525.116 260.503 525.031C260.755 524.946 260.97 524.818 261.149 524.648C261.328 524.477 261.464 524.268 261.558 524.021L264.076 524.188C263.949 524.793 263.686 525.321 263.29 525.773C262.898 526.22 262.391 526.57 261.769 526.821C261.151 527.068 260.437 527.192 259.627 527.192Z" fill="black"/>
<a href="https://www.figma.com/design/0x4YNMCJDDe75qJz6GTPdN/Figma-AI-(beta)-(Community)?node-id=1132-7154">
<rect fill="black" fill-opacity="0" y="5.10795" width="80.8242" height="21.7841"/>
</a>
<path d="M285.588 529.315L284.054 527.798L289.381 522.472H276V520.256H289.381L284.054 514.938L285.588 513.412L293.54 521.364L285.588 529.315Z" fill="black"/>
<a href="https://www.figma.com/design/0x4YNMCJDDe75qJz6GTPdN/Figma-AI-(beta)-(Community)?node-id=1132-7154">
<rect fill="black" fill-opacity="0" y="-14.5227" width="22.9091" height="29.0455"/>
</a>
<path fill-rule="evenodd" clip-rule="evenodd" d="M1169 286.25C1169 297.853 1164.39 308.981 1156.19 317.186C1147.98 325.391 1136.85 330 1125.25 330C1113.65 330 1102.52 325.391 1094.31 317.186C1086.11 308.981 1081.5 297.853 1081.5 286.25C1081.5 274.647 1086.11 263.519 1094.31 255.314C1102.52 247.109 1113.65 242.5 1125.25 242.5C1136.85 242.5 1147.98 247.109 1156.19 255.314C1164.39 263.519 1169 274.647 1169 286.25ZM1125.25 312.5C1128.7 312.5 1132.11 311.821 1135.3 310.502C1138.48 309.183 1141.37 307.249 1143.81 304.812C1146.25 302.374 1148.18 299.48 1149.5 296.295C1150.82 293.111 1151.5 289.697 1151.5 286.25C1151.5 282.803 1150.82 279.389 1149.5 276.205C1148.18 273.02 1146.25 270.126 1143.81 267.688C1141.37 265.251 1138.48 263.317 1135.3 261.998C1132.11 260.679 1128.7 260 1125.25 260C1118.29 260 1111.61 262.766 1106.69 267.688C1101.77 272.611 1099 279.288 1099 286.25C1099 293.212 1101.77 299.889 1106.69 304.812C1111.61 309.734 1118.29 312.5 1125.25 312.5ZM1125.25 470C1127.57 470 1129.8 470.922 1131.44 472.563C1133.08 474.204 1134 476.429 1134 478.75V505H1160.25C1162.57 505 1164.8 505.922 1166.44 507.563C1168.08 509.204 1169 511.429 1169 513.75C1169 516.071 1168.08 518.296 1166.44 519.937C1164.8 521.578 1162.57 522.5 1160.25 522.5H1134V548.75C1134 551.071 1133.08 553.296 1131.44 554.937C1129.8 556.578 1127.57 557.5 1125.25 557.5C1122.93 557.5 1120.7 556.578 1119.06 554.937C1117.42 553.296 1116.5 551.071 1116.5 548.75V522.5H1090.25C1087.93 522.5 1085.7 521.578 1084.06 519.937C1082.42 518.296 1081.5 516.071 1081.5 513.75C1081.5 511.429 1082.42 509.204 1084.06 507.563C1085.7 505.922 1087.93 505 1090.25 505H1116.5V478.75C1116.5 476.429 1117.42 474.204 1119.06 472.563C1120.7 470.922 1122.93 470 1125.25 470ZM973.526 282.05L953.978 350.475L885.273 370.25C855.488 378.825 855.611 421.105 885.448 429.505L953.996 448.807L973.526 517.162C982.031 546.947 1024.24 546.947 1032.75 517.162L1052.29 448.772L1120.68 429.225C1150.47 420.72 1150.47 378.51 1120.68 370.005L1052.29 350.457L1032.75 282.068C1024.24 252.283 982.031 252.265 973.526 282.05ZM890.208 412.67C877.311 409.03 877.258 390.795 890.121 387.085L968.136 364.615L990.361 286.862C994.036 274 1012.24 274 1015.91 286.862L1038.14 364.615L1115.87 386.822C1128.73 390.497 1128.73 408.732 1115.87 412.407L1038.14 434.615L1015.91 512.35C1012.24 525.213 994.036 525.213 990.361 512.35L968.136 434.615L890.208 412.67Z" fill="#CB9FD2"/>
<rect x="477" y="264" width="107.004" height="42" rx="21" stroke="white" stroke-width="2"/>
<path d="M500.412 295.5V273.559H503.616V281.712H503.809C503.994 281.369 504.262 280.972 504.612 280.522C504.962 280.072 505.448 279.68 506.069 279.344C506.691 279.001 507.512 278.83 508.533 278.83C509.862 278.83 511.047 279.165 512.09 279.837C513.133 280.508 513.951 281.476 514.544 282.74C515.144 284.004 515.444 285.526 515.444 287.304C515.444 289.083 515.147 290.607 514.554 291.879C513.962 293.143 513.147 294.118 512.112 294.804C511.076 295.482 509.894 295.821 508.565 295.821C507.566 295.821 506.748 295.654 506.112 295.318C505.484 294.982 504.991 294.589 504.634 294.139C504.276 293.689 504.001 293.289 503.809 292.939H503.541V295.5H500.412ZM503.551 287.272C503.551 288.429 503.719 289.443 504.055 290.315C504.391 291.186 504.876 291.868 505.512 292.361C506.148 292.847 506.926 293.089 507.848 293.089C508.805 293.089 509.605 292.836 510.247 292.329C510.89 291.815 511.376 291.118 511.705 290.24C512.04 289.361 512.208 288.372 512.208 287.272C512.208 286.186 512.044 285.211 511.715 284.347C511.394 283.483 510.908 282.801 510.258 282.301C509.615 281.801 508.812 281.551 507.848 281.551C506.919 281.551 506.133 281.79 505.491 282.269C504.855 282.747 504.373 283.415 504.044 284.272C503.716 285.129 503.551 286.129 503.551 287.272ZM526.133 295.832C524.512 295.832 523.115 295.486 521.944 294.793C520.78 294.093 519.88 293.111 519.244 291.847C518.616 290.575 518.301 289.086 518.301 287.379C518.301 285.694 518.616 284.208 519.244 282.922C519.88 281.637 520.766 280.633 521.901 279.912C523.044 279.19 524.38 278.83 525.908 278.83C526.837 278.83 527.736 278.983 528.608 279.29C529.479 279.597 530.261 280.08 530.954 280.737C531.647 281.394 532.193 282.247 532.593 283.297C532.993 284.34 533.193 285.608 533.193 287.101V288.236H520.112V285.836H530.054C530.054 284.994 529.883 284.247 529.54 283.597C529.197 282.94 528.715 282.422 528.094 282.044C527.479 281.665 526.758 281.476 525.929 281.476C525.03 281.476 524.244 281.697 523.572 282.14C522.908 282.576 522.394 283.147 522.03 283.854C521.673 284.554 521.494 285.315 521.494 286.136V288.011C521.494 289.111 521.687 290.047 522.073 290.818C522.465 291.59 523.012 292.179 523.712 292.586C524.412 292.986 525.23 293.186 526.165 293.186C526.772 293.186 527.326 293.1 527.826 292.929C528.326 292.75 528.758 292.486 529.122 292.136C529.486 291.786 529.765 291.354 529.958 290.84L532.99 291.386C532.747 292.279 532.311 293.061 531.683 293.732C531.061 294.397 530.279 294.914 529.336 295.286C528.401 295.65 527.333 295.832 526.133 295.832ZM544.429 279.044V281.615H535.44V279.044H544.429ZM537.851 275.101H541.054V290.668C541.054 291.29 541.147 291.757 541.333 292.072C541.519 292.379 541.758 292.589 542.051 292.704C542.351 292.811 542.676 292.864 543.026 292.864C543.283 292.864 543.508 292.847 543.701 292.811C543.893 292.775 544.043 292.747 544.151 292.725L544.729 295.371C544.543 295.443 544.279 295.514 543.936 295.586C543.593 295.664 543.165 295.707 542.651 295.714C541.808 295.729 541.022 295.579 540.294 295.264C539.565 294.95 538.976 294.464 538.526 293.807C538.076 293.15 537.851 292.325 537.851 291.332V275.101ZM552.762 295.864C551.719 295.864 550.776 295.671 549.933 295.286C549.09 294.893 548.423 294.325 547.93 293.582C547.444 292.839 547.201 291.929 547.201 290.85C547.201 289.922 547.38 289.158 547.737 288.558C548.094 287.958 548.576 287.483 549.183 287.133C549.79 286.783 550.469 286.518 551.219 286.34C551.969 286.161 552.733 286.026 553.512 285.933C554.497 285.819 555.297 285.726 555.911 285.654C556.526 285.576 556.972 285.451 557.251 285.279C557.529 285.108 557.668 284.829 557.668 284.444V284.369C557.668 283.433 557.404 282.708 556.876 282.194C556.354 281.679 555.576 281.422 554.54 281.422C553.462 281.422 552.612 281.662 551.99 282.14C551.376 282.612 550.951 283.137 550.715 283.715L547.705 283.029C548.062 282.029 548.583 281.222 549.269 280.608C549.962 279.987 550.758 279.537 551.658 279.258C552.558 278.973 553.504 278.83 554.497 278.83C555.154 278.83 555.851 278.908 556.586 279.065C557.329 279.215 558.022 279.494 558.665 279.901C559.315 280.308 559.847 280.89 560.261 281.647C560.675 282.397 560.882 283.372 560.882 284.572V295.5H557.754V293.25H557.626C557.418 293.664 557.108 294.072 556.693 294.471C556.279 294.871 555.747 295.204 555.097 295.468C554.447 295.732 553.669 295.864 552.762 295.864ZM553.458 293.293C554.344 293.293 555.101 293.118 555.729 292.768C556.365 292.418 556.847 291.961 557.176 291.397C557.511 290.825 557.679 290.215 557.679 289.565V287.443C557.565 287.558 557.343 287.665 557.015 287.765C556.693 287.858 556.326 287.94 555.911 288.011C555.497 288.075 555.094 288.136 554.701 288.193C554.308 288.243 553.979 288.286 553.715 288.322C553.094 288.4 552.526 288.533 552.012 288.718C551.505 288.904 551.097 289.172 550.79 289.522C550.49 289.865 550.34 290.322 550.34 290.893C550.34 291.686 550.633 292.286 551.219 292.693C551.805 293.093 552.551 293.293 553.458 293.293Z" fill="white"/>
<rect x="40" y="4" width="131.719" height="30" rx="3" fill="#4D49FC"/>
<rect x="40.5" y="4.5" width="130.719" height="29" rx="2.5" stroke="black" stroke-opacity="0.2"/>
<path d="M47.2969 22H46.2813L49.2188 14H50.2188L53.1563 22H52.1406L49.75 15.2656H49.6875L47.2969 22ZM47.6719 18.875H51.7656V19.7344H47.6719V18.875ZM55.3711 14V22H54.4023V14H55.3711ZM61.8604 22L59.6729 14H60.6572L62.3291 20.5156H62.4072L64.1104 14H65.2041L66.9072 20.5156H66.9854L68.6572 14H69.6416L67.4541 22H66.4541L64.6885 15.625H64.626L62.8604 22H61.8604ZM72.6025 22.125C72.0609 22.125 71.5856 21.9961 71.1768 21.7383C70.7705 21.4805 70.4528 21.1198 70.2236 20.6562C69.9971 20.1927 69.8838 19.651 69.8838 19.0312C69.8838 18.4062 69.9971 17.8607 70.2236 17.3945C70.4528 16.9284 70.7705 16.5664 71.1768 16.3086C71.5856 16.0508 72.0609 15.9219 72.6025 15.9219C73.1442 15.9219 73.6182 16.0508 74.0244 16.3086C74.4333 16.5664 74.751 16.9284 74.9775 17.3945C75.2067 17.8607 75.3213 18.4062 75.3213 19.0312C75.3213 19.651 75.2067 20.1927 74.9775 20.6562C74.751 21.1198 74.4333 21.4805 74.0244 21.7383C73.6182 21.9961 73.1442 22.125 72.6025 22.125ZM72.6025 21.2969C73.014 21.2969 73.3525 21.1914 73.6182 20.9805C73.8838 20.7695 74.0804 20.4922 74.208 20.1484C74.3356 19.8047 74.3994 19.4323 74.3994 19.0312C74.3994 18.6302 74.3356 18.2565 74.208 17.9102C74.0804 17.5638 73.8838 17.2839 73.6182 17.0703C73.3525 16.8568 73.014 16.75 72.6025 16.75C72.1911 16.75 71.8525 16.8568 71.5869 17.0703C71.3213 17.2839 71.1247 17.5638 70.9971 17.9102C70.8695 18.2565 70.8057 18.6302 70.8057 19.0312C70.8057 19.4323 70.8695 19.8047 70.9971 20.1484C71.1247 20.4922 71.3213 20.7695 71.5869 20.9805C71.8525 21.1914 72.1911 21.2969 72.6025 21.2969ZM76.7285 22V16H77.6191V16.9062H77.6816C77.791 16.6094 77.9889 16.3685 78.2754 16.1836C78.5618 15.9987 78.8848 15.9062 79.2441 15.9062C79.3118 15.9062 79.3965 15.9076 79.498 15.9102C79.5996 15.9128 79.6764 15.9167 79.7285 15.9219V16.8594C79.6973 16.8516 79.6257 16.8398 79.5137 16.8242C79.4043 16.806 79.2884 16.7969 79.166 16.7969C78.8743 16.7969 78.6139 16.8581 78.3848 16.9805C78.1582 17.1003 77.9785 17.2669 77.8457 17.4805C77.7155 17.6914 77.6504 17.9323 77.6504 18.2031V22H76.7285ZM81.6807 19.8125L81.665 18.6719H81.8525L84.4775 16H85.6182L82.8213 18.8281H82.7432L81.6807 19.8125ZM80.8213 22V14H81.7432V22H80.8213ZM84.6338 22L82.29 19.0312L82.9463 18.3906L85.8057 22H84.6338ZM89.4766 16V16.7812H86.2422V16H89.4766ZM87.2109 22V15.1719C87.2109 14.8281 87.2917 14.5417 87.4531 14.3125C87.6146 14.0833 87.8242 13.9115 88.082 13.7969C88.3398 13.6823 88.612 13.625 88.8984 13.625C89.125 13.625 89.3099 13.6432 89.4531 13.6797C89.5964 13.7161 89.7031 13.75 89.7734 13.7812L89.5078 14.5781C89.4609 14.5625 89.3958 14.543 89.3125 14.5195C89.2318 14.4961 89.125 14.4844 88.9922 14.4844C88.6875 14.4844 88.4674 14.5612 88.332 14.7148C88.1992 14.8685 88.1328 15.0937 88.1328 15.3906V22H87.2109ZM91.6904 14V22H90.7686V14H91.6904ZM95.8164 22.125C95.2747 22.125 94.7995 21.9961 94.3906 21.7383C93.9844 21.4805 93.6667 21.1198 93.4375 20.6562C93.2109 20.1927 93.0977 19.651 93.0977 19.0312C93.0977 18.4062 93.2109 17.8607 93.4375 17.3945C93.6667 16.9284 93.9844 16.5664 94.3906 16.3086C94.7995 16.0508 95.2747 15.9219 95.8164 15.9219C96.3581 15.9219 96.832 16.0508 97.2383 16.3086C97.6471 16.5664 97.9648 16.9284 98.1914 17.3945C98.4206 17.8607 98.5352 18.4062 98.5352 19.0312C98.5352 19.651 98.4206 20.1927 98.1914 20.6562C97.9648 21.1198 97.6471 21.4805 97.2383 21.7383C96.832 21.9961 96.3581 22.125 95.8164 22.125ZM95.8164 21.2969C96.2279 21.2969 96.5664 21.1914 96.832 20.9805C97.0977 20.7695 97.2943 20.4922 97.4219 20.1484C97.5495 19.8047 97.6133 19.4323 97.6133 19.0312C97.6133 18.6302 97.5495 18.2565 97.4219 17.9102C97.2943 17.5638 97.0977 17.2839 96.832 17.0703C96.5664 16.8568 96.2279 16.75 95.8164 16.75C95.4049 16.75 95.0664 16.8568 94.8008 17.0703C94.5352 17.2839 94.3385 17.5638 94.2109 17.9102C94.0833 18.2565 94.0195 18.6302 94.0195 19.0312C94.0195 19.4323 94.0833 19.8047 94.2109 20.1484C94.3385 20.4922 94.5352 20.7695 94.8008 20.9805C95.0664 21.1914 95.4049 21.2969 95.8164 21.2969ZM101.098 22L99.2695 16H100.238L101.535 20.5938H101.598L102.879 16H103.863L105.129 20.5781H105.191L106.488 16H107.457L105.629 22H104.723L103.41 17.3906H103.316L102.004 22H101.098ZM112.926 17.3437L112.098 17.5781C112.046 17.4401 111.969 17.306 111.867 17.1758C111.768 17.043 111.633 16.9336 111.461 16.8477C111.289 16.7617 111.069 16.7187 110.801 16.7187C110.434 16.7187 110.128 16.8034 109.883 16.9727C109.641 17.1393 109.52 17.3516 109.52 17.6094C109.52 17.8385 109.603 18.0195 109.77 18.1523C109.936 18.2852 110.197 18.3958 110.551 18.4844L111.441 18.7031C111.978 18.8333 112.378 19.0326 112.641 19.3008C112.904 19.5664 113.035 19.9089 113.035 20.3281C113.035 20.6719 112.936 20.9792 112.738 21.25C112.543 21.5208 112.27 21.7344 111.918 21.8906C111.566 22.0469 111.158 22.125 110.691 22.125C110.079 22.125 109.573 21.9922 109.172 21.7266C108.771 21.4609 108.517 21.0729 108.41 20.5625L109.285 20.3437C109.368 20.6667 109.526 20.9089 109.758 21.0703C109.992 21.2318 110.298 21.3125 110.676 21.3125C111.105 21.3125 111.447 21.2214 111.699 21.0391C111.954 20.8542 112.082 20.6328 112.082 20.375C112.082 20.1667 112.009 19.9922 111.863 19.8516C111.717 19.7083 111.493 19.6016 111.191 19.5312L110.191 19.2969C109.642 19.1667 109.238 18.9648 108.98 18.6914C108.725 18.4154 108.598 18.0703 108.598 17.6562C108.598 17.3177 108.693 17.0182 108.883 16.7578C109.076 16.4974 109.337 16.293 109.668 16.1445C110.001 15.9961 110.379 15.9219 110.801 15.9219C111.395 15.9219 111.861 16.0521 112.199 16.3125C112.54 16.5729 112.783 16.9167 112.926 17.3437ZM124.392 18C124.392 18.8437 124.239 19.5729 123.935 20.1875C123.63 20.8021 123.212 21.276 122.681 21.6094C122.149 21.9427 121.543 22.1094 120.86 22.1094C120.178 22.1094 119.571 21.9427 119.04 21.6094C118.509 21.276 118.091 20.8021 117.786 20.1875C117.481 19.5729 117.329 18.8437 117.329 18C117.329 17.1562 117.481 16.4271 117.786 15.8125C118.091 15.1979 118.509 14.724 119.04 14.3906C119.571 14.0573 120.178 13.8906 120.86 13.8906C121.543 13.8906 122.149 14.0573 122.681 14.3906C123.212 14.724 123.63 15.1979 123.935 15.8125C124.239 16.4271 124.392 17.1562 124.392 18ZM123.454 18C123.454 17.3073 123.338 16.7227 123.106 16.2461C122.877 15.7695 122.566 15.4089 122.173 15.1641C121.782 14.9193 121.345 14.7969 120.86 14.7969C120.376 14.7969 119.937 14.9193 119.544 15.1641C119.153 15.4089 118.842 15.7695 118.61 16.2461C118.381 16.7227 118.267 17.3073 118.267 18C118.267 18.6927 118.381 19.2773 118.61 19.7539C118.842 20.2305 119.153 20.5911 119.544 20.8359C119.937 21.0807 120.376 21.2031 120.86 21.2031C121.345 21.2031 121.782 21.0807 122.173 20.8359C122.566 20.5911 122.877 20.2305 123.106 19.7539C123.338 19.2773 123.454 18.6927 123.454 18ZM130.802 16L128.583 22H127.646L125.427 16H126.427L128.083 20.7812H128.146L129.802 16H130.802ZM134.319 22.125C133.741 22.125 133.243 21.9974 132.823 21.7422C132.407 21.4844 132.085 21.125 131.858 20.6641C131.634 20.2005 131.522 19.6615 131.522 19.0469C131.522 18.4323 131.634 17.8906 131.858 17.4219C132.085 16.9505 132.4 16.5833 132.804 16.3203C133.21 16.0547 133.684 15.9219 134.226 15.9219C134.538 15.9219 134.847 15.974 135.151 16.0781C135.456 16.1823 135.733 16.3516 135.983 16.5859C136.233 16.8177 136.433 17.125 136.581 17.5078C136.729 17.8906 136.804 18.362 136.804 18.9219V19.3125H132.179V18.5156H135.866C135.866 18.1771 135.799 17.875 135.663 17.6094C135.53 17.3437 135.34 17.1341 135.093 16.9805C134.848 16.8268 134.559 16.75 134.226 16.75C133.858 16.75 133.541 16.8411 133.272 17.0234C133.007 17.2031 132.802 17.4375 132.659 17.7266C132.516 18.0156 132.444 18.3255 132.444 18.6562V19.1875C132.444 19.6406 132.522 20.0247 132.679 20.3398C132.838 20.6523 133.058 20.8906 133.339 21.0547C133.62 21.2161 133.947 21.2969 134.319 21.2969C134.562 21.2969 134.78 21.263 134.976 21.1953C135.174 21.125 135.344 21.0208 135.487 20.8828C135.631 20.7422 135.741 20.5677 135.819 20.3594L136.71 20.6094C136.616 20.9115 136.459 21.1771 136.237 21.4062C136.016 21.6328 135.743 21.8099 135.417 21.9375C135.091 22.0625 134.726 22.125 134.319 22.125ZM138.206 22V16H139.097V16.9062H139.159C139.269 16.6094 139.466 16.3685 139.753 16.1836C140.039 15.9987 140.362 15.9062 140.722 15.9062C140.789 15.9062 140.874 15.9076 140.976 15.9102C141.077 15.9128 141.154 15.9167 141.206 15.9219V16.8594C141.175 16.8516 141.103 16.8398 140.991 16.8242C140.882 16.806 140.766 16.7969 140.644 16.7969C140.352 16.7969 140.091 16.8581 139.862 16.9805C139.636 17.1003 139.456 17.2669 139.323 17.4805C139.193 17.6914 139.128 17.9323 139.128 18.2031V22H138.206ZM147.388 16L145.169 22H144.231L142.013 16H143.013L144.669 20.7812H144.731L146.388 16H147.388ZM148.604 22V16H149.526V22H148.604ZM149.073 15C148.894 15 148.739 14.9388 148.608 14.8164C148.481 14.694 148.417 14.5469 148.417 14.375C148.417 14.2031 148.481 14.056 148.608 13.9336C148.739 13.8112 148.894 13.75 149.073 13.75C149.253 13.75 149.407 13.8112 149.534 13.9336C149.664 14.056 149.729 14.2031 149.729 14.375C149.729 14.5469 149.664 14.694 149.534 14.8164C149.407 14.9388 149.253 15 149.073 15ZM153.73 22.125C153.152 22.125 152.654 21.9974 152.234 21.7422C151.818 21.4844 151.496 21.125 151.27 20.6641C151.046 20.2005 150.934 19.6615 150.934 19.0469C150.934 18.4323 151.046 17.8906 151.27 17.4219C151.496 16.9505 151.811 16.5833 152.215 16.3203C152.621 16.0547 153.095 15.9219 153.637 15.9219C153.949 15.9219 154.258 15.974 154.563 16.0781C154.867 16.1823 155.145 16.3516 155.395 16.5859C155.645 16.8177 155.844 17.125 155.992 17.5078C156.141 17.8906 156.215 18.362 156.215 18.9219V19.3125H151.59V18.5156H155.277C155.277 18.1771 155.21 17.875 155.074 17.6094C154.941 17.3437 154.751 17.1341 154.504 16.9805C154.259 16.8268 153.97 16.75 153.637 16.75C153.27 16.75 152.952 16.8411 152.684 17.0234C152.418 17.2031 152.214 17.4375 152.07 17.7266C151.927 18.0156 151.855 18.3255 151.855 18.6562V19.1875C151.855 19.6406 151.934 20.0247 152.09 20.3398C152.249 20.6523 152.469 20.8906 152.75 21.0547C153.031 21.2161 153.358 21.2969 153.73 21.2969C153.973 21.2969 154.191 21.263 154.387 21.1953C154.585 21.125 154.755 21.0208 154.898 20.8828C155.042 20.7422 155.152 20.5677 155.23 20.3594L156.121 20.6094C156.027 20.9115 155.87 21.1771 155.648 21.4062C155.427 21.6328 155.154 21.8099 154.828 21.9375C154.503 22.0625 154.137 22.125 153.73 22.125ZM158.977 22L157.148 16H158.117L159.414 20.5938H159.477L160.758 16H161.742L163.008 20.5781H163.07L164.367 16H165.336L163.508 22H162.602L161.289 17.3906H161.195L159.883 22H158.977Z" fill="white"/>
</svg>
