<svg width="204" height="204" viewBox="0 0 204 204" fill="none" xmlns="http://www.w3.org/2000/svg">
<path d="M101.792 199.542C155.863 199.542 199.697 155.709 199.697 101.637C199.697 47.5656 155.863 3.73193 101.792 3.73193C47.7204 3.73193 3.88672 47.5656 3.88672 101.637C3.88672 155.709 47.7204 199.542 101.792 199.542Z" stroke="black" stroke-width="7" stroke-miterlimit="10"/>
<path d="M101.793 3.89795V199.542" stroke="black" stroke-width="7" stroke-miterlimit="10"/>
<path d="M101.792 199.542C128.828 199.542 150.745 155.709 150.745 101.637C150.745 47.5656 128.828 3.73193 101.792 3.73193C74.7567 3.73193 52.8398 47.5656 52.8398 101.637C52.8398 155.709 74.7567 199.542 101.792 199.542Z" stroke="black" stroke-width="7" stroke-miterlimit="10"/>
<path d="M4.05273 101.637H199.697" stroke="black" stroke-width="7" stroke-miterlimit="10"/>
</svg>
